<svg width="512" height="512" viewBox="0 0 512 512" fill="none" xmlns="http://www.w3.org/2000/svg">
<path d="M68.0001 372H78.1231V484H68.0001V372ZM79.8801 168.035C79.8801 168.023 79.8801 168.012 79.8801 168V140H77.8801C74.6975 140 71.6452 138.736 69.3948 136.485C67.1443 134.235 65.8801 131.183 65.8801 128C65.8801 124.817 67.1443 121.765 69.3948 119.515C71.6452 117.264 74.6975 116 77.8801 116H85.8801C95.5262 116.012 104.958 113.158 112.98 107.8L121.885 101.862V100.446C121.904 95.8469 120.195 91.4085 117.096 88.0105C113.996 84.6125 109.733 82.5029 105.152 82.1C96.6694 81.3013 88.1778 83.5302 81.1809 88.3919C74.184 93.2537 69.1333 100.435 66.9231 108.663L65.7381 113.046C65.5559 113.721 65.1997 114.337 64.7051 114.831L60.0411 119.495C53.424 126.109 49.451 134.912 48.8691 144.25C48.8118 145.178 48.4323 146.057 47.7961 146.735L46.7461 147.855C42.8717 151.996 40.0394 157.001 38.4837 162.455C36.9281 167.908 36.6937 173.654 37.8001 179.216C37.9968 180.2 37.8165 181.222 37.2951 182.079L31.2951 191.937C29.6758 194.606 28.6245 197.581 28.2069 200.674C27.7893 203.768 28.0144 206.915 28.8681 209.918L28.9681 210.278C30.1943 214.543 32.5967 218.376 35.9001 221.338C39.2036 224.301 43.2746 226.274 47.6471 227.03C50.3031 227.479 52.8921 227.919 55.0981 228.296L53.4211 222.648C53.4041 222.592 53.3891 222.536 53.3741 222.479C50.6939 211.736 51.8812 200.393 56.7278 190.438C61.5744 180.482 69.7709 172.551 79.8801 168.035ZM70.8801 83.278C73.0556 83.278 75.1824 82.6329 76.9913 81.4242C78.8003 80.2155 80.2102 78.4975 81.0427 76.4875C81.8753 74.4775 82.0931 72.2658 81.6687 70.132C81.2443 67.9982 80.1966 66.0382 78.6582 64.4998C77.1199 62.9614 75.1598 61.9138 73.0261 61.4894C70.8923 61.0649 68.6805 61.2828 66.6705 62.1153C64.6605 62.9479 62.9426 64.3578 61.7339 66.1667C60.5252 67.9757 59.8801 70.1024 59.8801 72.278C59.8835 75.1938 61.0431 77.9892 63.1046 80.0513C65.1661 82.1134 67.9613 83.2738 70.8771 83.278H70.8801ZM109.88 156H107.88V164.531C114.239 165.272 120.48 166.806 126.457 169.098C126.394 163.151 124.59 157.353 121.268 152.42C117.928 154.753 113.951 156.003 109.877 156H109.88ZM86.1231 452H113.877V444H86.1231V452ZM67.1131 340H57.8771V364H120.41L76.8941 346.314C73.2565 344.861 69.9349 342.717 67.1131 340V340ZM121.877 484H132V460H121.877V484ZM121.877 424.877L135.7 372H121.88L121.877 424.877ZM166.77 239.332C174.651 243.836 183.96 245.143 192.776 242.985C201.593 240.826 209.245 235.367 214.154 227.732L274.513 133.841C274.667 133.601 280.22 128.004 280.22 128.004L276.797 124.581L256.714 131.275L249.455 145.793C249.381 145.94 249.298 146.082 249.206 146.218L249.19 146.244C249.092 146.39 248.983 146.53 248.866 146.661L184.866 218.661C184.17 219.445 183.193 219.924 182.147 219.995C181.101 220.066 180.069 219.723 179.273 219.041L146.573 191.011L124.24 215.029L166.77 239.332ZM156 464V460H140V482C140 482.53 140.211 483.039 140.586 483.414C140.961 483.789 141.47 484 142 484H164.347C164.941 480.532 166.321 477.247 168.382 474.395L157.782 467.328C157.234 466.963 156.785 466.468 156.474 465.887C156.163 465.307 156 464.659 156 464V464ZM99.0331 164C99.3151 164 99.5951 164.016 99.8771 164.019V152C99.8771 150.939 100.298 149.922 101.049 149.172C101.799 148.421 102.816 148 103.877 148H109.877C113.059 147.997 116.109 146.731 118.359 144.481C120.608 142.232 121.874 139.182 121.877 136V111.475L117.409 114.453C108.076 120.688 97.1013 124.011 85.8771 124H77.8771C76.8162 124 75.7988 124.421 75.0486 125.172C74.2985 125.922 73.8771 126.939 73.8771 128C73.8771 129.061 74.2985 130.078 75.0486 130.828C75.7988 131.579 76.8162 132 77.8771 132H83.8771C84.9379 132 85.9553 132.421 86.7055 133.172C87.4556 133.922 87.8771 134.939 87.8771 136V165.327C91.5302 164.445 95.275 164 99.0331 164V164ZM247.405 132H241.877V140H243.405L247.405 132ZM182.92 370.921C183.696 365.896 182.98 360.755 180.861 356.133C178.742 351.511 175.314 347.613 171.001 344.921L115.757 310.393C115.182 310.033 114.707 309.533 114.378 308.94C114.05 308.347 113.877 307.679 113.877 307.001V300.001H72.3501L68.2301 308.24C66.2282 312.247 65.4783 316.764 66.0781 321.202C66.6779 325.641 68.5995 329.797 71.5931 333.129C71.6641 333.198 71.7261 333.276 71.7931 333.35C74.0461 335.776 76.8105 337.67 79.8861 338.896L142.386 364.296C143.285 364.661 144.021 365.342 144.456 366.209C144.891 367.077 144.995 368.074 144.75 369.013L123.057 452H170.445L182.92 370.921ZM62.7631 196.557C59.708 204.151 59.1308 212.516 61.1141 220.457L64.5991 232.187C68.0757 243.9 70.5914 255.878 72.1211 268H129.877V256C129.877 255.257 130.084 254.529 130.474 253.897C130.865 253.265 131.424 252.754 132.088 252.422L133.777 251.578C136.749 250.092 139.343 247.95 141.364 245.313C143.384 242.675 144.778 239.613 145.439 236.357L115.893 219.473C115.369 219.174 114.919 218.761 114.578 218.263C114.236 217.766 114.012 217.198 113.921 216.602C113.83 216.005 113.875 215.396 114.052 214.82C114.23 214.243 114.536 213.715 114.947 213.273L140.4 185.9C128.492 176.887 113.967 172.007 99.0331 172C91.2198 171.974 83.5802 174.304 77.1104 178.684C70.6406 183.065 65.6408 189.293 62.7631 196.557V196.557ZM211.146 348.441C210.837 343.267 208.982 338.306 205.822 334.198C202.662 330.09 198.342 327.025 193.42 325.4L121.877 301.55V304.783L175.241 338.136C180.881 341.656 185.364 346.754 188.135 352.798C190.905 358.841 191.841 365.565 190.826 372.136L178.539 452H217.619L211.146 348.441ZM120.327 276H80.7601L75.4271 292H114.994L120.327 276ZM289.321 332L266.521 484H282.433L305.233 332H289.321ZM341.584 141.951C342.896 144.249 344.932 146.049 347.373 147.071C349.814 148.093 352.525 148.278 355.083 147.6C357.641 146.921 359.903 145.415 361.517 143.318C363.13 141.22 364.005 138.648 364.005 136.001C364.005 133.354 363.13 130.782 361.517 128.684C359.903 126.587 357.641 125.081 355.083 124.402C352.525 123.724 349.814 123.909 347.373 124.931C344.932 125.953 342.896 127.753 341.584 130.051L344.708 133.175C345.458 133.925 345.879 134.942 345.879 136.003C345.879 137.064 345.458 138.081 344.708 138.831L341.584 141.951ZM335.206 125.151C337.548 121.524 341.001 118.753 345.049 117.25C349.097 115.748 353.522 115.596 357.663 116.817C361.804 118.038 365.439 120.567 368.025 124.024C370.61 127.482 372.007 131.684 372.007 136.001C372.007 140.318 370.61 144.52 368.025 147.978C365.439 151.435 361.804 153.964 357.663 155.185C353.522 156.406 349.097 156.254 345.049 154.752C341.001 153.249 337.548 150.478 335.206 146.851C331.244 149.113 326.8 150.397 322.242 150.597C317.684 150.797 313.145 149.906 309 148H297.6L290.517 201.827L325.946 180.57C326.711 180.111 327.607 179.921 328.492 180.029C329.378 180.138 330.201 180.54 330.832 181.17L352.514 202.852L397.785 172.671C398.636 172.104 399.671 171.884 400.679 172.056C401.687 172.229 402.591 172.781 403.204 173.599L432.945 213.253L457.316 28H313.385L300.753 124H309.024C313.167 122.104 317.702 121.22 322.254 121.421C326.806 121.622 331.246 122.902 335.206 125.155V125.151ZM289.2 211.809L286.017 236H302.789L345.722 207.378L327.38 189.037C327.38 189.037 289.494 211.716 289.2 211.809ZM335.7 136.522L336.223 136L335.699 135.477C332.901 132.675 329.362 130.729 325.496 129.87C321.631 129.011 317.601 129.273 313.879 130.626V141.374C317.601 142.728 321.632 142.991 325.497 142.131C329.363 141.272 332.903 139.326 335.7 136.522V136.522ZM431.45 224.597L399.072 181.427L317.211 236H429.948L431.45 224.597ZM441.85 328.522C441.723 329.485 441.25 330.37 440.519 331.01C439.788 331.65 438.849 332.002 437.877 332H435.038L449.514 484H465.478L446.963 289.6L441.85 328.522ZM443.631 253.663L473.316 28H465.385L426.438 324H434.369L443.623 253.672L443.631 253.663ZM380 304C380 305.061 380.421 306.078 381.172 306.828C381.922 307.579 382.939 308 384 308H420.474L418.374 324H274.438L276.543 308H312C313.061 308 314.078 307.579 314.828 306.828C315.579 306.078 316 305.061 316 304C316 302.939 315.579 301.922 314.828 301.172C314.078 300.421 313.061 300 312 300H277.6L280.758 276H312C313.061 276 314.078 275.579 314.828 274.828C315.579 274.078 316 273.061 316 272C316 270.939 315.579 269.922 314.828 269.172C314.078 268.421 313.061 268 312 268H281.806L284.964 244H428.9L421.532 300H384C382.939 300 381.922 300.421 381.172 301.172C380.421 301.922 380 302.939 380 304ZM416 284H408C406.939 284 405.922 284.421 405.172 285.172C404.421 285.922 404 286.939 404 288C404 289.061 404.421 290.078 405.172 290.828C405.922 291.579 406.939 292 408 292H416C417.061 292 418.078 291.579 418.828 290.828C419.579 290.078 420 289.061 420 288C420 286.939 419.579 285.922 418.828 285.172C418.078 284.421 417.061 284 416 284ZM408 268H376C374.939 268 373.922 268.421 373.172 269.172C372.421 269.922 372 270.939 372 272C372 273.061 372.421 274.078 373.172 274.828C373.922 275.579 374.939 276 376 276H408C409.061 276 410.078 275.579 410.828 274.828C411.579 274.078 412 273.061 412 272C412 270.939 411.579 269.922 410.828 269.172C410.078 268.421 409.061 268 408 268ZM348 256C348 257.061 348.421 258.078 349.172 258.828C349.922 259.579 350.939 260 352 260H384C385.061 260 386.078 259.579 386.828 258.828C387.579 258.078 388 257.061 388 256C388 254.939 387.579 253.922 386.828 253.172C386.078 252.421 385.061 252 384 252H352C350.939 252 349.922 252.421 349.172 253.172C348.421 253.922 348 254.939 348 256ZM332 272C332 273.061 332.421 274.078 333.172 274.828C333.922 275.579 334.939 276 336 276H352C353.061 276 354.078 275.579 354.828 274.828C355.579 274.078 356 273.061 356 272C356 270.939 355.579 269.922 354.828 269.172C354.078 268.421 353.061 268 352 268H336C334.939 268 333.922 268.421 333.172 269.172C332.421 269.922 332 270.939 332 272ZM328 260C329.061 260 330.078 259.579 330.828 258.828C331.579 258.078 332 257.061 332 256C332 254.939 331.579 253.922 330.828 253.172C330.078 252.421 329.061 252 328 252H304C302.939 252 301.922 252.421 301.172 253.172C300.421 253.922 300 254.939 300 256C300 257.061 300.421 258.078 301.172 258.828C301.922 259.579 302.939 260 304 260H328ZM364 304C364 302.939 363.579 301.922 362.828 301.172C362.078 300.421 361.061 300 360 300H344C342.939 300 341.922 300.421 341.172 301.172C340.421 301.922 340 302.939 340 304C340 305.061 340.421 306.078 341.172 306.828C341.922 307.579 342.939 308 344 308H360C361.061 308 362.078 307.579 362.828 306.828C363.579 306.078 364 305.061 364 304ZM384 292C385.061 292 386.078 291.579 386.828 290.828C387.579 290.078 388 289.061 388 288C388 286.939 387.579 285.922 386.828 285.172C386.078 284.421 385.061 284 384 284H312C310.939 284 309.922 284.421 309.172 285.172C308.421 285.922 308 286.939 308 288C308 289.061 308.421 290.078 309.172 290.828C309.922 291.579 310.939 292 312 292H384ZM196 464V460H180V472C179.994 472.165 179.977 472.33 179.95 472.493L182.656 474.293C184.259 475.362 185.581 476.802 186.508 478.49C187.435 480.179 187.941 482.067 187.983 483.993H204.347C204.941 480.525 206.321 477.24 208.382 474.388L197.782 467.321C197.235 466.957 196.786 466.463 196.475 465.884C196.165 465.304 196.001 464.657 196 464ZM218.219 480.953L215.057 478.845C213.898 480.387 213.044 482.137 212.541 484H219.99C219.948 483.39 219.766 482.799 219.459 482.271C219.152 481.742 218.728 481.292 218.219 480.953V480.953ZM305.877 140V132H287.534L281.009 138.524L280.06 140H305.877ZM178.219 480.953L175.057 478.845C173.898 480.387 173.044 482.137 172.541 484H179.99C179.948 483.39 179.766 482.799 179.459 482.271C179.152 481.742 178.728 481.292 178.219 480.953ZM370.521 484H386.433L409.233 332H393.321L370.521 484ZM376.832 388H304.922L302.522 404H374.432L376.832 388Z" fill="url(#paint0_linear_12_50810)" id="id_104"></path>
<defs>
<linearGradient id="paint0_linear_12_50810" x1="61.2711" y1="477.271" x2="491.929" y2="46.613" gradientUnits="userSpaceOnUse">
<stop stop-color="#c25fed" id="id_105"></stop>
<stop offset="1" stop-color="#bcc200" id="id_106"></stop>
</linearGradient>
</defs>
</svg>